<svg xmlns="http://www.w3.org/2000/svg" viewBox="0 0 128 128">
  <!-- Map pin body -->
  <path d="M64 4C39.7 4 20 23.7 20 48c0 34 44 74 44 74s44-40 44-74C108 23.7 88.3 4 64 4z" fill="#00CCBC"/>
  <path d="M64 4C39.7 4 20 23.7 20 48c0 34 44 74 44 74s44-40 44-74C108 23.7 88.3 4 64 4z" fill="none" stroke="#009e91" stroke-width="2"/>
  <!-- Star -->
  <polygon points="64,24 72.2,42.5 92,45.2 77.8,59 81.4,78.5 64,69 46.6,78.5 50.2,59 36,45.2 55.8,42.5" fill="#FBBC04"/>
  <polygon points="64,24 72.2,42.5 92,45.2 77.8,59 81.4,78.5 64,69 46.6,78.5 50.2,59 36,45.2 55.8,42.5" fill="none" stroke="#E8A600" stroke-width="1.5"/>
</svg>
